:SAMPLES-PER-SECOND 30
:FULLY-SPECIFIED
:DEGREES
425
root  -38.0235 37.7015 -30.3776 11.9813 -85.6245 13.8923
RightUpLeg  -62.217 -18.9626 18.1421
RightLeg  31.5317 0.968555 0.394676
RightFoot  3.2499 1.59995 -12.2623
RightToes  0.000482159 0.542163 -0.142577
Spine  66.5971 -4.58987 7.40417
Spine1  6.23903 -0.080614 -0.746972
HEad  -37.4268 -6.20365 0.00371759
LeftShoulder1  8.43573 -24.4845 -23.7326
LeftArm  -59.0762 -64.1755 9.30115
LeftForeArm  -9.13723 -12.2126 -2.58801
LeftHand  -0.25398 0.0180481 5.50724
RightShoulder  3.54015 13.2726 14.2272
RightArm  -46.9756 52.8987 -2.6587
RightForeArm  -35.8011 20.0469 6.40372
RightHand  0.369735 2.25087 5.38399
LeftUpLeg  -60.1753 14.8749 -16.219
LeftLeg  27.3847 -2.64268 -1.14839
LeftFoot  4.94276 -1.10633 7.52199
LeftToes  1.06247e-005 4.65855e-005 -8.18501e-006
426
root  -38.5928 37.6066 -30.3053 11.7547 -86.4445 16.4028
RightUpLeg  -64.4902 -17.4221 17.9447
RightLeg  33.4202 0.456157 0.0682408
RightFoot  2.20319 1.44582 -11.9898
RightToes  0.000482159 0.542163 -0.142577
Spine  68.9608 -4.89799 7.27637
Spine1  5.11863 0.234203 -2.17451
HEad  -38.4357 -6.33675 0.228036
LeftShoulder1  7.84162 -24.5625 -21.4133
LeftArm  -65.5579 -65.0668 14.9034
LeftForeArm  -9.47758 -12.0732 -1.89589
LeftHand  -0.25398 0.0180481 5.50724
RightShoulder  3.42772 13.484 13.208
RightArm  -54.114 53.373 -8.63567
RightForeArm  -32.2901 17.727 6.01528
RightHand  0.564091 4.05787 6.5758
LeftUpLeg  -62.6065 14.7077 -16.8263
LeftLeg  28.8779 -2.16891 -0.94971
LeftFoot  4.40021 -1.22691 8.67497
LeftToes  1.06247e-005 4.65855e-005 -8.18501e-006
427
root  -39.1117 37.5095 -30.2328 8.19534 -86.9418 21.988
RightUpLeg  -66.7315 -16.1415 17.436
RightLeg  35.4526 -0.208149 -0.424002
RightFoot  1.53995 1.30725 -11.4374
RightToes  0.000482159 0.542163 -0.142577
Spine  70.998 -5.18816 7.1204
Spine1  4.0635 0.297511 -2.93459
HEad  -39.0045 -6.46375 0.0655149
LeftShoulder1  7.33719 -24.5213 -19.5437
LeftArm  -70.5711 -65.2952 19.8597
LeftForeArm  -9.94432 -11.9999 -1.47034
LeftHand  -0.25398 0.0180481 5.50724
RightShoulder  3.24367 13.5398 11.9444
RightArm  -60.2369 53.5964 -13.9469
RightForeArm  -28.9967 15.4441 5.38161
RightHand  0.781598 5.93038 7.56719
LeftUpLeg  -64.5998 13.9619 -17.1885
LeftLeg  30.4566 -1.09336 -0.344079
LeftFoot  3.35706 -1.35358 10.2975
LeftToes  1.06247e-005 4.65855e-005 -8.18501e-006
428
root  -39.6036 37.3962 -30.1787 3.25569 -87.0591 28.8655
RightUpLeg  -68.9529 -15.259 17.0442
RightLeg  37.3186 -0.851715 -0.969342
RightFoot  0.92568 1.20186 -11.079
RightToes  0.000482159 0.542163 -0.142577
Spine  72.395 -5.50301 7.19959
Spine1  3.06881 0.0856058 -3.191
HEad  -39.5473 -6.46575 0.06362
LeftShoulder1  7.03075 -24.568 -18.3261
LeftArm  -74.3714 -64.9597 24.4814
LeftForeArm  -10.5618 -12.1304 -1.34591
LeftHand  -0.25398 0.0180481 5.50724
RightShoulder  3.08038 13.741 10.6472
RightArm  -64.9672 53.1254 -18.4918
RightForeArm  -26.639 13.7855 4.62877
RightHand  0.983719 7.93899 8.05016
LeftUpLeg  -66.5758 12.9234 -17.1518
LeftLeg  32.2316 -0.12013 0.270677
LeftFoot  1.98443 -1.15513 9.74692
LeftToes  1.06247e-005 4.65855e-005 -8.18501e-006
429
root  -40.0867 37.285 -30.1311 -0.303879 -87.357 34.2798
RightUpLeg  -70.722 -14.4869 17.0463
RightLeg  38.5675 -1.28331 -1.3766
RightFoot  -0.1637 1.09097 -11.1159
RightToes  0.000482159 0.542163 -0.142577
Spine  73.4303 -5.77611 7.30882
Spine1  2.34451 0.0432921 -3.87928
HEad  -40.1291 -6.33699 0.469477
LeftShoulder1  6.85412 -24.7332 -17.4915
LeftArm  -77.4624 -64.39 27.9035
LeftForeArm  -10.6309 -12.8886 -1.35127
LeftHand  -0.25398 0.0180481 5.50724
RightShoulder  2.98749 13.9994 9.76019
RightArm  -68.763 52.1124 -21.4345
RightForeArm  -24.4661 13.455 3.89534
RightHand  1.13014 9.70552 8.12628
LeftUpLeg  -68.5625 12.2738 -17.0294
LeftLeg  33.9064 0.421182 0.663003
LeftFoot  0.947965 -0.935043 8.62191
LeftToes  1.06247e-005 4.65855e-005 -8.18501e-006
430
root  -40.55 37.1969 -30.0749 -6.21965 -87.9604 41.8654
RightUpLeg  -71.9356 -13.722 17.2339
RightLeg  39.2622 -1.47981 -1.58019
RightFoot  -1.53833 0.976743 -11.4626
RightToes  0.000482159 0.542163 -0.142577
Spine  74.3616 -5.93465 7.1736
Spine1  1.93609 0.224985 -5.00598
HEad  -40.6023 -6.09603 0.812211
LeftShoulder1  6.74824 -24.9482 -16.8876
LeftArm  -80.6684 -63.7722 29.8007
LeftForeArm  -9.67249 -14.2671 -1.32822
LeftHand  -0.25398 0.0180481 5.50724
RightShoulder  2.91559 14.0702 9.22728
RightArm  -72.5026 51.3041 -22.8008
RightForeArm  -21.7122 14.2995 3.3279
RightHand  1.2018 10.6563 8.10653
LeftUpLeg  -70.1525 12.0101 -17.0833
LeftLeg  35.1603 1.02077 1.137
LeftFoot  -0.178988 -0.867395 8.88271
LeftToes  1.06247e-005 4.65855e-005 -8.18501e-006
431
root  -40.9743 37.1431 -30.0141 -18.8777 -88.4233 55.9698
RightUpLeg  -72.8785 -13.133 17.2786
RightLeg  39.7301 -1.5547 -1.67104
RightFoot  -2.63396 0.889808 -11.8629
RightToes  0.000482159 0.542163 -0.142577
Spine  75.1067 -5.98814 6.87822
Spine1  1.75552 0.313371 -5.78631
HEad  -40.9455 -5.793 0.711796
LeftShoulder1  6.71641 -25.1969 -16.5404
LeftArm  -84.2831 -63.0206 30.9113
LeftForeArm  -8.06088 -15.7491 -1.35649
LeftHand  -0.25398 0.0180481 5.50724
RightShoulder  2.83122 14.0119 8.7522
RightArm  -75.9444 50.9788 -23.7829
RightForeArm  -18.9457 15.2401 3.03236
RightHand  1.22901 10.9342 8.14486
LeftUpLeg  -71.1573 11.6855 -17.1749
LeftLeg  35.8935 1.83086 1.78992
LeftFoot  -1.74761 -0.772285 9.28991
LeftToes  1.06247e-005 4.65855e-005 -8.18501e-006
432
root  -41.3476 37.131 -29.9634 -35.1908 -88.5837 73.4781
RightUpLeg  -73.6047 -12.7076 17.135
RightLeg  40.0274 -1.62528 -1.75101
RightFoot  -3.34414 0.808813 -11.8332
RightToes  0.000482159 0.542163 -0.142577
Spine  75.6332 -5.96712 6.56949
Spine1  1.62861 0.175976 -6.03844
HEad  -41.1641 -5.37373 0.436861
LeftShoulder1  6.67191 -25.3018 -16.2788
LeftArm  -87.3792 -62.141 31.7947
LeftForeArm  -6.36369 -16.9001 -1.53392
LeftHand  -0.25398 0.0180481 5.50724
RightShoulder  2.74267 13.9756 8.22345
RightArm  -77.995 50.9783 -24.8445
RightForeArm  -17.2002 15.562 2.90142
RightHand  1.24399 11.1592 8.12706
LeftUpLeg  -71.8189 11.2707 -17.0586
LeftLeg  36.3217 2.46063 2.31033
LeftFoot  -2.96892 -0.597553 8.39282
LeftToes  1.06247e-005 4.65855e-005 -8.18501e-006
433
root  -41.6692 37.1555 -29.9288 -51.3391 -88.6948 90.5326
RightUpLeg  -73.9585 -12.2798 16.9661
RightLeg  40.0696 -1.71408 -1.83367
RightFoot  -3.8377 0.708679 -11.1529
RightToes  0.000482159 0.542163 -0.142577
Spine  76.0785 -5.88152 6.24931
Spine1  1.42995 -0.00878631 -6.23171
HEad  -41.1896 -4.83342 0.341617
LeftShoulder1  6.51554 -25.107 -15.861
LeftArm  -89.2322 -61.3412 32.4621
LeftForeArm  -4.51442 -17.6699 -1.77799
LeftHand  -0.25398 0.0180481 5.50724
RightShoulder  2.62674 13.8258 7.62629
RightArm  -78.5516 51.2137 -25.2253
RightForeArm  -16.3612 15.7813 2.96737
RightHand  1.19897 11.3786 7.70198
LeftUpLeg  -72.3444 11.0747 -16.799
LeftLeg  36.6797 2.76076 2.57602
LeftFoot  -3.34569 -0.477758 7.12194
LeftToes  1.06247e-005 4.65855e-005 -8.18501e-006
434
root  -41.9517 37.1968 -29.9032 -67.3072 -88.8013 107.185
RightUpLeg  -74.0421 -11.891 16.8943
RightLeg  39.9472 -1.78639 -1.89118
RightFoot  -4.12958 0.627887 -10.3689
RightToes  0.000482159 0.542163 -0.142577
Spine  76.4319 -5.78668 5.96953
Spine1  1.28912 -0.0944984 -6.53316
HEad  -41.0967 -4.36756 0.335828
LeftShoulder1  6.31327 -24.7817 -15.3764
LeftArm  -90.4583 -60.7958 33.1771
LeftForeArm  -2.57264 -18.0863 -1.90729
LeftHand  -0.25398 0.0180481 5.50724
RightShoulder  2.49467 13.5912 6.9957
RightArm  -78.3888 51.4217 -24.763
RightForeArm  -15.6945 16.5578 3.31826
RightHand  1.01008 11.2008 6.48097
LeftUpLeg  -72.6516 11.0886 -16.6141
LeftLeg  36.8776 2.96377 2.75514
LeftFoot  -3.58035 -0.429067 6.6382
LeftToes  1.06247e-005 4.65855e-005 -8.18501e-006
435
root  -42.208 37.2386 -29.8776 -76.619 -88.7838 117.086
RightUpLeg  -74.1073 -11.7281 16.9263
RightLeg  39.79 -1.82447 -1.91519
RightFoot  -4.29625 0.599118 -10.1678
RightToes  0.000482159 0.542163 -0.142577
Spine  76.5235 -5.69794 5.83936
Spine1  1.42158 -0.0674469 -6.64456
HEad  -41.0904 -4.18413 0.196751
LeftShoulder1  6.22079 -24.6564 -15.1297
LeftArm  -91.4427 -60.5347 34.1959
LeftForeArm  -1.53173 -18.091 -1.82616
LeftHand  -0.25398 0.0180481 5.50724
RightShoulder  2.43036 13.6194 6.54679
RightArm  -77.8782 51.1668 -24.4374
RightForeArm  -15.195 17.5863 3.77212
RightHand  0.700811 10.6409 4.51473
LeftUpLeg  -72.6774 11.02 -16.5423
LeftLeg  36.7561 3.17473 2.91284
LeftFoot  -4.22265 -0.381402 6.53194
LeftToes  1.06247e-005 4.65855e-005 -8.18501e-006
436
root  -42.434 37.277 -29.8504 -79.0051 -88.6781 119.952
RightUpLeg  -74.1579 -11.7864 16.9957
RightLeg  39.6304 -1.84012 -1.91884
RightFoot  -4.57256 0.584025 -10.3584
RightToes  0.000482159 0.542163 -0.142577
Spine  76.3948 -5.56268 5.80063
Spine1  1.72549 0.0226848 -6.48495
HEad  -41.1504 -4.13643 -0.0109567
LeftShoulder1  6.25185 -24.7411 -15.1753
LeftArm  -91.4935 -60.4463 34.8133
LeftForeArm  -1.57645 -18.0291 -1.82031
LeftHand  -0.25398 0.0180481 5.50724
RightShoulder  2.45317 13.8599 6.47169
RightArm  -77.0825 50.7143 -24.4919
RightForeArm  -15.3087 18.3336 4.12812
RightHand  0.36822 9.94641 2.25223
LeftUpLeg  -72.559 10.8445 -16.5012
LeftLeg  36.5003 3.29674 2.98544
LeftFoot  -4.8417 -0.324921 6.23156
LeftToes  1.06247e-005 4.65855e-005 -8.18501e-006
437
root  -42.6183 37.3132 -29.8208 -81.9222 -88.5917 123.091
RightUpLeg  -74.0512 -11.9009 17.0129
RightLeg  39.5612 -1.83326 -1.90835
RightFoot  -4.92925 0.545538 -10.2927
RightToes  0.000482159 0.542163 -0.142577
Spine  76.3019 -5.42509 5.70418
Spine1  1.96022 0.0539845 -6.34816
HEad  -41.0832 -3.85095 -0.141019
LeftShoulder1  6.28032 -24.7591 -15.2694
LeftArm  -91.0444 -60.2868 33.9526
LeftForeArm  -0.372407 -18.8223 -2.39582
LeftHand  -0.25398 0.0180481 5.50724
RightShoulder  2.45506 13.7928 6.54592
RightArm  -76.2494 50.9007 -23.9759
RightForeArm  -16.1479 18.9824 4.44997
RightHand  0.024929 9.14879 -0.313443
LeftUpLeg  -72.3905 10.8137 -16.4833
LeftLeg  36.4199 3.28023 2.96448
LeftFoot  -5.10058 -0.295639 5.98327
LeftToes  1.06247e-005 4.65855e-005 -8.18501e-006
